{"title":"Altered 2006 DVDRip BigPerm LKRG","uid":5637238,"size":495452792,"categoryP":"video","categoryS":"movies","magnet":"?xt=urn:btih:1e6d1920bfe7e38025b67364676a09252561f875&amp;dn=Altered+2006+DVDRip+BigPerm+LKRG&amp;tr=udp%3A%2F%2Ftracker.openbittorrent.com%3A80&amp;tr=udp%3A%2F%2Fopen.demonii.com%3A1337&amp;tr=udp%3A%2F%2Ftracker.coppersurfer.tk%3A6969&amp;tr=udp%3A%2F%2Fexodus.desync.com%3A6969","seeders":8,"leechers":0,"uploader":"neon","files":-1,"time":1276937685,"description":"Fifteen years ago, a group of men's lives were forever changed by a strange occurrence. Now, the same group of men will spend a night together ... in terror.\n &lt;a href=&quot;\nhttp://img412.imageshack.us/img412/6671/6ozuzgm.png&quot; rel=&quot;nofollow&quot; target=&quot;_NEW&quot;&gt;\nhttp://img412.imageshack.us/img412/6671/6ozuzgm.png&lt;/a&gt; &lt;a href=&quot;\nhttp://img687.imageshack.us/img687/2044/dbqkeykf.png&quot; rel=&quot;nofollow&quot; target=&quot;_NEW&quot;&gt;\nhttp://img687.imageshack.us/img687/2044/dbqkeykf.png&lt;/a&gt; &lt;a href=&quot;\nhttp://img94.imageshack.us/img94/6113/kqqgcisr.png&quot; rel=&quot;nofollow&quot; target=&quot;_NEW&quot;&gt;\nhttp://img94.imageshack.us/img94/6113/kqqgcisr.png&lt;/a&gt; &lt;a href=&quot;\nhttp://img13.imageshack.us/img13/4111/wsc0zncj.png&quot; rel=&quot;nofollow&quot; target=&quot;_NEW&quot;&gt;\nhttp://img13.imageshack.us/img13/4111/wsc0zncj.png&lt;/a&gt; &lt;a href=&quot;\nhttp://img820.imageshack.us/img820/9497/3ektehwo.png&quot; rel=&quot;nofollow&quot; target=&quot;_NEW&quot;&gt;\nhttp://img820.imageshack.us/img820/9497/3ektehwo.png&lt;/a&gt;\n &lt;a href=&quot;\nhttp://www.imdb.com/title/tt0457275/&quot; rel=&quot;nofollow&quot; target=&quot;_NEW&quot;&gt;\nhttp://www.imdb.com/title/tt0457275/&lt;/a&gt;\n\n encoded by bigperm  &lt;a href=&quot;\nhttp://img441.imageshack.us/img441/5863/547pdk.gif&quot; rel=&quot;nofollow&quot; target=&quot;_NEW&quot;&gt;\nhttp://img441.imageshack.us/img441/5863/547pdk.gif&lt;/a&gt;\n\nMisty Rosas..................Foki Scout\nPaul McCarthy-Boyington......Cody\nBrad WIlliam Henke...........Duke\nMichael C.Williams...........Otis\nAdam Kaufman.................Wyatt\nCatherine Mangan.............Hope\nJames Gammon.................Sheriif Henderson\nJoe Unger....................Mr. Towne\nJohn WIlliam Wright..........Monger Warrior\nShea Elmore..................Monger Warrior\nKlaus Heesch.................Monger Warrior\nMatt McCann..................Monger Warrior\nPhil Stevenson...............Monger Warrior\nEduardo Sanchez..............Monger Warrior\n\nFormat : MPEG-4\nFormat profile : Base Media / Version 2\nCodec ID : mp42\nFile size : 473 MiB\nDuration : 1h 27mn\nOverall bit rate : 751 Kbps\n\nVideo:\n\nID : 1\nFormat : AVC\nFormat/Info : Advanced Video Codec\nFormat profile : &lt;a class=&quot;__cf_email__&quot; href=&quot;/cdn-cgi/l/email-protection&quot; data-cfemail=&quot;430e222a2d030f706d73&quot;&gt;[email&amp;#160;protected]&lt;/a&gt;&lt;script cf-hash='f9e31' type=&quot;text/javascript&quot;&gt;\n/* &lt;![CDATA[ */!function(){try{var t=&quot;currentScript&quot;in document?document.currentScript:function(){for(var t=document.getElementsByTagName(&quot;script&quot;),e=t.length;e--;)if(t[e].getAttribute(&quot;cf-hash&quot;))return t[e]}();if(t&amp;&amp;t.previousSibling){var e,r,n,i,c=t.previousSibling,a=c.getAttribute(&quot;data-cfemail&quot;);if(a){for(e=&quot;&quot;,r=parseInt(a.substr(0,2),16),n=2;a.length-n;n+=2)i=parseInt(a.substr(n,2),16)^r,e+=String.fromCharCode(i);e=document.createTextNode(e),c.parentNode.replaceChild(e,c)}}}catch(u){}}();/* ]]&gt; */&lt;/script&gt;\nFormat settings, CABAC : Yes\nFormat settings, ReFrames : 2 frames\nCodec ID : avc1\nCodec ID/Info : Advanced Video Coding\nDuration : 1h 27mn\nBit rate mode : Variable\nBit rate : 587 Kbps\nWidth : 720 pixels\nHeight : 462 pixels\nDisplay aspect ratio : 16:9\nFrame rate mode : Variable\nFrame rate : 23.976 fps\nMinimum frame rate : 11.989 fps\nMaximum frame rate : 29.970 fps\nResolution : 8 bits\nColorimetry : 4:2:0\nScan type : Progressive\nBits/(Pixel*Frame) : 0.074\nStream size : 369 MiB (78%)\nWriting library : x264 core 79\n\nAudio:\n\nID : 2\nFormat : AAC\nFormat/Info : Advanced Audio Codec\nFormat version : Version 4\nFormat profile : LC\nFormat settings, SBR : No\nCodec ID : 40\nDuration : 1h 27mn\nBit rate mode : Variable\nBit rate : 159 Kbps\nMaximum bit rate : 238 Kbps\nChannel(s) : 2 channels\nChannel positions : Front: L R\nSampling rate : 48.0 KHz\nStream size : 100 MiB (21%)\nLanguage : English","torrent":{"xt":"urn:btih:1e6d1920bfe7e38025b67364676a09252561f875","amp;dn":"Altered+2006+DVDRip+BigPerm+LKRG","amp;tr":["udp%3A%2F%2Ftracker.openbittorrent.com%3A80","udp%3A%2F%2Fopen.demonii.com%3A1337","udp%3A%2F%2Ftracker.coppersurfer.tk%3A6969","udp%3A%2F%2Fexodus.desync.com%3A6969"],"infoHash":"1e6d1920bfe7e38025b67364676a09252561f875","infoHashBuffer":{"type":"Buffer","data":[30,109,25,32,191,231,227,128,37,182,115,100,103,106,9,37,37,97,248,117]},"announce":[],"urlList":[]}}